<?xml version="1.0" encoding="UTF-8"?>
<svg version="1.1" xmlns="http://www.w3.org/2000/svg" width="906" height="862">
<path d="M0 0 C1.0654517 -0.00611329 1.0654517 -0.00611329 2.15242767 -0.01235008 C5.93055407 -0.03307935 9.70864583 -0.0474231 13.48681641 -0.05688477 C16.53292551 -0.0656308 19.57856134 -0.0862481 22.62451172 -0.1184082 C120.61656542 -1.12879452 216.1501682 35.88024248 297.34765625 106.97265625 C298.74490923 108.23300886 300.14882645 109.48643537 301.57739258 110.71118164 C307.28527164 115.61418602 312.6147073 120.84461731 317.921875 126.17578125 C319.21061523 127.4587207 319.21061523 127.4587207 320.52539062 128.76757812 C325.51282804 133.76263576 330.27807916 138.87010244 334.859375 144.23828125 C335.80864583 145.3214093 336.7591134 146.40349001 337.7109375 147.484375 C345.5119347 156.42762629 352.77727786 165.7184296 359.859375 175.23828125 C360.40239258 175.96563477 360.94541016 176.69298828 361.50488281 177.44238281 C391.72269938 218.07394484 415.61026208 263.75648185 429.796875 312.42578125 C430.16248535 313.6775415 430.5280957 314.92930176 430.90478516 316.21899414 C434.2440873 328.00802645 436.85676994 339.91118021 438.109375 352.11328125 C438.19960938 352.89574219 438.28984375 353.67820312 438.3828125 354.484375 C438.58913177 356.39781983 438.73107292 358.31802675 438.859375 360.23828125 C437.04066682 362.05698943 434.52381503 361.36094402 432.10307401 361.36736256 C431.26943297 361.36444972 430.43579193 361.36153688 429.57688904 361.35853577 C428.69807086 361.35939019 427.81925267 361.36024462 426.91380364 361.36112493 C423.94568936 361.36278244 420.97763062 361.35725396 418.00952148 361.35180664 C415.89117433 361.3515248 413.77282708 361.35168244 411.65447998 361.35224915 C405.88405359 361.35253725 400.11364778 361.3466385 394.34322619 361.33967519 C388.32005081 361.33344373 382.29687501 361.33283802 376.2736969 361.33164978 C364.85915936 361.32853585 353.44463135 361.32032163 342.03009802 361.31030029 C329.0387876 361.29914107 316.04747673 361.29362919 303.05616271 361.28860486 C276.32389485 361.27813907 249.59163546 361.26053843 222.859375 361.23828125 C222.2330542 359.82927264 221.60675675 358.42025366 220.98046875 357.01123047 C220.63169678 356.22658417 220.2829248 355.44193787 219.92358398 354.6335144 C219.22190968 353.05424419 218.5209501 351.47465621 217.820755 349.89472961 C207.64888868 326.99495056 193.82976035 306.22019482 176.54296875 288.07421875 C174.31820508 285.72315845 172.19716487 283.33454273 170.109375 280.86328125 C166.67792156 276.91340678 162.86606775 273.59096057 158.859375 270.23828125 C157.98539063 269.47644531 157.11140625 268.71460938 156.2109375 267.9296875 C144.43213833 257.80876221 131.48655065 249.63772527 117.859375 242.23828125 C116.89902344 241.71621094 115.93867187 241.19414062 114.94921875 240.65625 C84.89980455 224.99087451 52.09538754 218.91313045 18.484375 218.80078125 C17.60930298 218.79451721 16.73423096 218.78825317 15.8326416 218.78179932 C-0.38808937 218.70834207 -16.41741964 220.34974919 -32.140625 224.48828125 C-32.95200928 224.69807617 -33.76339355 224.90787109 -34.59936523 225.12402344 C-63.1697021 232.74424607 -89.16124449 245.6212965 -112.140625 264.23828125 C-113.00171875 264.89570313 -113.8628125 265.553125 -114.75 266.23046875 C-128.38565835 276.84975419 -140.75087269 289.62505054 -150.93017578 303.58349609 C-152.13509593 305.23072256 -153.36761682 306.85399266 -154.60546875 308.4765625 C-166.1695715 323.86949059 -174.91600928 340.93564532 -182.39135742 358.62207031 C-183.140625 360.23828125 -183.140625 360.23828125 -184.140625 361.23828125 C-187.07367228 361.3362519 -189.98317888 361.36819929 -192.91664124 361.35853577 C-194.31449778 361.3598174 -194.31449778 361.3598174 -195.74059385 361.36112493 C-198.88836093 361.36278259 -202.03607566 361.35725372 -205.18383789 361.35180664 C-207.43026223 361.3515248 -209.67668667 361.35168243 -211.92311096 361.35224915 C-218.04269929 361.35253726 -224.16226821 361.34663831 -230.28185201 361.33967519 C-236.66938127 361.33344394 -243.05691092 361.33283803 -249.44444275 361.33164978 C-260.17235719 361.32889007 -270.90026311 361.32263454 -281.62817383 361.3137207 C-292.67993128 361.30454731 -303.73168678 361.29746612 -314.78344727 361.29321289 C-315.46421953 361.29295017 -316.1449918 361.29268744 -316.84639353 361.29241676 C-320.26149113 361.29111176 -323.67658875 361.28984804 -327.09168637 361.28860486 C-355.44133751 361.27823137 -383.79098087 361.26053817 -412.140625 361.23828125 C-411.98552882 359.48493809 -411.82920354 357.73170363 -411.67236328 355.97851562 C-411.54198166 354.51399963 -411.54198166 354.51399963 -411.40896606 353.01989746 C-407.44189789 311.89737618 -390.00320385 270.0497532 -370.17822266 234.17944336 C-368.99406093 231.96408574 -367.89525364 229.71420704 -366.79296875 227.45703125 C-364.02721423 221.89227616 -360.88565572 216.59724205 -357.640625 211.30078125 C-357.03041504 210.30296631 -356.42020508 209.30515137 -355.79150391 208.27709961 C-340.19296423 182.98026746 -322.42995375 158.87622808 -301.9921875 137.2734375 C-299.80563753 134.96180048 -297.69847226 132.60363552 -295.640625 130.17578125 C-288.77954335 122.23677405 -281.15154566 114.74962616 -273.1484375 107.96875 C-270.66784224 105.83080506 -268.28837233 103.59366445 -265.890625 101.36328125 C-261.21349392 97.09845924 -256.34586978 93.2621815 -251.2421875 89.5234375 C-248.55266455 87.54186203 -245.91260043 85.51569657 -243.28222656 83.45751953 C-236.78007016 78.38073174 -230.08925354 73.68443168 -223.140625 69.23828125 C-222.42036133 68.77631348 -221.70009766 68.3143457 -220.95800781 67.83837891 C-155.54559294 25.97604917 -78.10680022 0.38800674 0 0 Z " fill="#242424" transform="translate(439.140625,-0.23828125)"/>
<path d="M0 0 C0.88033242 0.00291284 1.76066484 0.00582568 2.66767401 0.00882679 C3.59549482 0.00797237 4.52331563 0.00711794 5.47925222 0.00623763 C8.61319985 0.00457998 11.74709489 0.01010882 14.88103765 0.01555592 C17.11760991 0.01583775 19.35418225 0.01568013 21.59075445 0.01511341 C27.68348417 0.0148253 33.77619439 0.02072424 39.86891955 0.02768737 C46.22842159 0.03391864 52.58792402 0.03452453 58.94742864 0.03571278 C69.62826441 0.03847248 80.30909243 0.04472801 90.98992437 0.05364186 C101.99317921 0.06281526 112.9964321 0.06989644 123.99969 0.07414967 C125.01636791 0.07454375 125.01636791 0.07454375 126.05358476 0.0749458 C129.45369829 0.0762508 132.85381183 0.07751452 136.25392538 0.0787577 C164.47916247 0.08913118 192.70439161 0.10682437 220.92962164 0.12908131 C221.62994512 1.6325713 221.62994512 1.6325713 222.34441656 3.16643482 C222.97045768 4.50946024 223.59651657 5.85247738 224.22259039 7.19548756 C224.52870245 7.85278858 224.83481451 8.51008961 225.15020269 9.18730885 C233.90547693 27.96347123 244.08338432 44.85260706 256.92962164 61.12908131 C257.36854742 61.68660084 257.8074732 62.24412037 258.25969976 62.81853443 C270.8742998 78.66863494 285.41174949 92.43091678 301.92962164 104.12908131 C302.55546148 104.57831959 303.18130132 105.02755787 303.82610601 105.49040943 C334.73284951 127.52911813 373.99809913 142.13294312 412.19524664 142.33220631 C413.50546789 142.34075642 413.50546789 142.34075642 414.84215826 142.34947926 C416.68770687 142.35888087 418.53327189 142.36544386 420.37884039 142.36931568 C423.13046345 142.37890991 425.88130184 142.40993277 428.63274664 142.44158131 C444.52242914 142.53679958 459.98761082 140.68778174 475.42962164 136.87908131 C476.28797613 136.66928639 477.14633062 136.45949147 478.03069586 136.24333912 C511.56021003 127.75221786 540.3399868 111.25312804 566.23675054 88.59636647 C567.43863758 87.55463859 568.65032467 86.5241699 569.86858648 85.5016399 C570.50103277 84.97006275 571.13347906 84.43848561 571.78509039 83.89080006 C572.36283209 83.40957691 572.94057379 82.92835377 573.53582281 82.43254811 C575.05957954 81.15900249 575.05957954 81.15900249 575.92962164 79.12908131 C576.58962164 79.12908131 577.24962164 79.12908131 577.92962164 79.12908131 C578.26026617 78.31310475 578.26026617 78.31310475 578.59759039 77.48064381 C580.35878726 74.37143407 582.76524983 72.04059394 585.24212164 69.50408131 C602.03160873 51.73539921 613.91736297 30.39067824 623.93743414 8.25286061 C625.21453137 5.51923146 626.58027323 2.82777813 627.92962164 0.12908131 C699.20962164 0.12908131 770.48962164 0.12908131 843.92962164 0.12908131 C840.05252041 38.9000936 828.07601434 75.27206361 810.92962164 110.12908131 C810.20102267 111.63914386 809.47308579 113.14952617 808.74602789 114.66033131 C796.68417871 139.48758785 782.24554217 163.17221595 765.48284429 185.09685475 C764.06179337 186.95614866 762.65537728 188.82537512 761.25384039 190.69939381 C752.46352942 202.38298073 742.79169031 213.34501623 732.92962164 224.12908131 C732.47087652 224.63294361 732.0121314 225.13680592 731.53948492 225.65593678 C723.07117302 234.95069784 714.54762045 244.17277271 704.98040289 252.35955006 C702.65395581 254.36694154 700.38769478 256.43374769 698.11712164 258.50408131 C690.38421944 265.47675963 682.2870467 271.92750306 673.92962164 278.12908131 C673.26817144 278.61997242 672.60672125 279.11086354 671.92522711 279.61663014 C655.32451565 291.87471799 638.29509411 303.234205 620.0868482 312.9703899 C617.97034525 314.10720781 615.86725644 315.26594478 613.76555914 316.42986256 C603.56051709 322.02718443 593.06093239 326.71165287 582.30413336 331.14617115 C580.27729404 331.9851651 578.26029046 332.8425359 576.24602789 333.71111256 C544.51538402 347.02697814 510.95944897 354.31300643 476.98674768 358.85071713 C475.06177415 359.11119882 473.13840741 359.38347848 471.21518987 359.65662342 C461.93992607 360.91623909 452.83875548 361.45478842 443.46868414 361.46501881 C442.02600517 361.47149005 440.58332734 361.47822106 439.14065069 361.48519093 C436.13049837 361.49705443 433.12045968 361.50088428 430.1102857 361.49968678 C427.10515298 361.49952611 424.10064219 361.51312976 421.09563726 361.5407024 C371.90180248 361.98476747 323.04079049 354.0711183 276.36712164 338.50408131 C275.69587255 338.28032826 275.02462347 338.05657521 274.3330335 337.82604176 C243.93195825 327.62124241 214.88866374 313.49342876 187.92962164 296.12908131 C187.29975347 295.72657154 186.66988531 295.32406178 186.02093023 294.90935475 C169.7696589 284.47886152 154.37458902 272.93913228 139.92962164 260.12908131 C138.5550033 258.94113953 137.18006426 257.7535686 135.80462164 256.56658131 C134.50975141 255.42436946 133.21835009 254.27821828 131.92962164 253.12908131 C131.08786382 252.380136 130.24610601 251.63119068 129.37884039 250.85955006 C117.51584874 240.15235733 105.70103688 229.11994454 95.82415289 216.52361256 C93.98340231 214.19705564 92.05352291 212.00776167 90.05462164 209.81658131 C80.06229562 198.65914218 71.40801891 186.45155902 62.92962164 174.12908131 C62.48731207 173.48825611 62.0450025 172.84743092 61.58928961 172.18718678 C55.35991624 163.12520711 49.62290399 153.82466369 44.16204351 144.28093678 C43.36056878 142.88153142 42.55480283 141.48457204 41.74407476 140.09050709 C17.65697359 98.63945154 -4.23090895 49.62276479 -7.07037836 1.12908131 C-5.19679032 -0.74450673 -2.49306262 0.00626173 0 0 Z " fill="#242424" transform="translate(35.07037836313248,500.8709186911583)"/>
<path d="M0 0 C0.33 0.99 0.66 1.98 1 3 C-0.32 5.64 -1.64 8.28 -3 11 C-78.24 11 -153.48 11 -231 11 C-230.67 8.03 -230.34 5.06 -230 2 C-229 4 -228 6 -227 8 C-153.41 8 -79.82 8 -4 8 C-2.68 5.36 -1.36 2.72 0 0 Z " fill="#1D1D1D" transform="translate(258,350)"/>
<path d="M0 0 C74.91 0 149.82 0 227 0 C227.33 1.32 227.66 2.64 228 4 C227.67 3.34 227.34 2.68 227 2 C152.42 2 77.84 2 1 2 C1 3.65 1 5.3 1 7 C0.34 6.34 -0.32 5.68 -1 5 C-0.67 3.35 -0.34 1.7 0 0 Z " fill="#121212" transform="translate(29,501)"/>
<path d="M0 0 C0.33 0 0.66 0 1 0 C1.36590746 1.72672034 1.71722195 3.45653655 2.0625 5.1875 C2.25972656 6.15042969 2.45695313 7.11335938 2.66015625 8.10546875 C3 11 3 11 2 16 C-68.95 16 -139.9 16 -213 16 C-213.33 14.68 -213.66 13.36 -214 12 C-213.34 12 -212.68 12 -212 12 C-212 12.66 -212 13.32 -212 14 C-210.91440607 13.99392447 -209.82881214 13.98784895 -208.71032143 13.98158932 C-182.3304686 13.83418494 -155.95058961 13.69255817 -129.57067299 13.5570364 C-116.81370048 13.49136527 -104.05674323 13.42379696 -91.29980469 13.35180664 C-80.18459778 13.28908575 -69.06937875 13.22987936 -57.95413053 13.17494446 C-52.06533561 13.14571617 -46.17656217 13.11469332 -40.28779984 13.07946587 C-34.7508556 13.04639846 -29.21390755 13.01801217 -23.67691994 12.99329376 C-21.63947817 12.98335877 -19.60204408 12.97167955 -17.56462288 12.95816994 C-14.79337592 12.94004942 -12.02217018 12.92807473 -9.25088501 12.91770935 C-8.4357206 12.91090556 -7.62055619 12.90410177 -6.78068984 12.89709181 C-1.22824242 12.88587879 -1.22824242 12.88587879 1 14 C0.835 13.360625 0.67 12.72125 0.5 12.0625 C-0.15932515 8.02413348 -0.08003779 4.08192742 0 0 Z " fill="#171717" transform="translate(875,345)"/>
<path d="M0 0 C2.87200374 -0.29418185 5.52841488 -0.39099891 8.40274048 -0.36076355 C9.28241309 -0.36332682 10.16208569 -0.3658901 11.06841505 -0.36853105 C14.03358599 -0.37349586 16.99825441 -0.35693173 19.96337891 -0.34057617 C22.08187345 -0.33973048 24.20036888 -0.3402039 26.31886292 -0.34190369 C32.08516589 -0.34276733 37.85128309 -0.3250819 43.61754274 -0.30418181 C49.63803456 -0.28547641 55.65853024 -0.28366943 61.67904663 -0.28010559 C73.08650434 -0.27076704 84.49387619 -0.24612881 95.90129602 -0.21605712 C108.88536383 -0.18256935 121.86943567 -0.16604127 134.85353589 -0.15097082 C161.5690716 -0.11958081 188.284531 -0.06678521 215 0 C214.67 0.99 214.34 1.98 214 3 C187.57441236 3.02337387 161.14882627 3.04100123 134.72323036 3.05181217 C122.45301594 3.05696559 110.18280795 3.06399011 97.91259766 3.07543945 C87.21626766 3.08541544 76.51994232 3.09186037 65.8236078 3.09408849 C60.16148895 3.09539064 54.49938341 3.09844516 48.83726883 3.10573006 C43.50383137 3.11253624 38.17041267 3.11460761 32.83697128 3.11310768 C30.88352608 3.11338194 28.93008023 3.11535971 26.97663879 3.11920547 C8.79397321 3.15323481 8.79397321 3.15323481 0 2 C-0.33 3.65 -0.66 5.3 -1 7 C-1.625 5.1875 -1.625 5.1875 -2 3 C-1.34 2.01 -0.68 1.02 0 0 Z " fill="#121212" transform="translate(663,501)"/>
<path d="M0 0 C1 3 1 3 0.22265625 5.04296875 C-0.16019531 5.75066406 -0.54304687 6.45835937 -0.9375 7.1875 C-1.31777344 7.90292969 -1.69804687 8.61835938 -2.08984375 9.35546875 C-2.54037109 10.16951172 -2.54037109 10.16951172 -3 11 C-21.43126727 11.03388501 -39.86028004 10.9452067 -58.29088259 10.79807091 C-61.92091602 10.76931194 -65.55095836 10.74172121 -69.18099976 10.71398926 C-76.00833872 10.66166264 -82.83566946 10.60833504 -89.6629976 10.5546174 C-97.45546551 10.49335704 -105.24794225 10.43325887 -113.04041982 10.37324238 C-129.02695648 10.25009125 -145.01348185 10.12553248 -161 10 C-161 9.67 -161 9.34 -161 9 C-109.19 8.67 -57.38 8.34 -4 8 C-2.68 5.36 -1.36 2.72 0 0 Z " fill="#151515" transform="translate(258,350)"/>
<path d="M0 0 C0.495 0.99 0.495 0.99 1 2 C-8.22547504 16.21447816 -18.02683464 30.07689934 -29 43 C-29.89381311 44.06721955 -30.78701115 45.13495443 -31.6796875 46.203125 C-37.31608703 52.92930044 -43.0730184 59.5271122 -49 66 C-49.69029297 66.75796875 -49.69029297 66.75796875 -50.39453125 67.53125 C-69.4975187 88.4991729 -69.4975187 88.4991729 -74 90 C-74 89.34 -74 88.68 -74 88 C-73.360625 87.525625 -72.72125 87.05125 -72.0625 86.5625 C-69.71627037 85.0908635 -69.71627037 85.0908635 -69 82 C-67.515 81.01 -67.515 81.01 -66 80 C-63.18981734 77.910377 -61.00028074 76.00035293 -58.8125 73.25 C-58.214375 72.5075 -57.61625 71.765 -57 71 C-56.34 71 -55.68 71 -55 71 C-55.33 69.68 -55.66 68.36 -56 67 C-55.319375 66.814375 -54.63875 66.62875 -53.9375 66.4375 C-46.0597068 62.58240971 -40.06519413 53.92587768 -35 47 C-35 46.34 -35 45.68 -35 45 C-34.01 45 -33.02 45 -32 45 C-31.773125 44.46375 -31.54625 43.9275 -31.3125 43.375 C-29.56617944 40.21499137 -27.3597151 37.7323017 -25 35 C-25.33 34.34 -25.66 33.68 -26 33 C-25.40670898 32.75378906 -24.81341797 32.50757813 -24.20214844 32.25390625 C-21.63352813 30.79133043 -20.48168336 29.33258946 -18.765625 26.9375 C-18.19199219 26.14085937 -17.61835937 25.34421875 -17.02734375 24.5234375 C-16.44082031 23.69070313 -15.85429688 22.85796875 -15.25 22 C-14.64800781 21.16726563 -14.04601562 20.33453125 -13.42578125 19.4765625 C-10.24583233 15.59189947 -10.24583233 15.59189947 -9 11 C-7.33333333 9.33333333 -5.66666667 7.66666667 -4 6 C-2.56354621 4.04954357 -1.2896367 2.05386585 0 0 Z " fill="#101010" transform="translate(817,659)"/>
<path d="M0 0 C-1 2 -1 2 -2.81567383 2.65087891 C-3.60482178 2.84085449 -4.39396973 3.03083008 -5.20703125 3.2265625 C-6.09350342 3.44924805 -6.97997559 3.67193359 -7.89331055 3.90136719 C-9.33830933 4.25956543 -9.33830933 4.25956543 -10.8125 4.625 C-38.75532737 11.93951948 -64.30979236 25.14732581 -86.52270508 43.59741211 C-90.68580618 47 -90.68580618 47 -94 47 C-85.37432515 38.64464545 -75.40628534 31.43376271 -65.109375 25.26953125 C-62.8862473 24.04705762 -62.8862473 24.04705762 -61 22 C-59.34083143 21.31488551 -57.67234762 20.65228496 -56 20 C-52.95492736 18.48942525 -49.92762542 16.95143407 -46.90820312 15.390625 C-42.21233259 13 -42.21233259 13 -40 13 C-40 12.34 -40 11.68 -40 11 C-38.88818359 10.80470703 -38.88818359 10.80470703 -37.75390625 10.60546875 C-35.2608079 10.05734074 -33.25965499 9.34119296 -30.9375 8.3125 C-25.61812249 6.12833135 -20.18402332 4.42246756 -14.6875 2.75 C-13.37930298 2.34454956 -13.37930298 2.34454956 -12.04467773 1.9309082 C-11.20880127 1.68042725 -10.3729248 1.42994629 -9.51171875 1.171875 C-8.76365967 0.9459668 -8.01560059 0.72005859 -7.24487305 0.48730469 C-4.77311302 -0.04925138 -2.52184583 -0.08327504 0 0 Z " fill="#101010" transform="translate(413,221)"/>
<path d="M0 0 C3.77035153 3.72183598 7.4098104 7.54205316 11 11.4375 C11.76183594 12.25831055 11.76183594 12.25831055 12.5390625 13.09570312 C14.99941263 15.76108243 17.40479235 18.45220414 19.71875 21.24609375 C22.66370519 24.80121945 25.70011416 28.00798186 29.375 30.8125 C31.68071113 32.73392595 33.44139865 34.60042877 35.375 36.875 C38.62755493 40.69228425 42.11784351 43.83089266 46 47 C41.85314366 47 40.21714457 44.78470641 37.375 42.0625 C36.81522461 41.53470947 36.25544922 41.00691895 35.67871094 40.46313477 C33.77373868 38.65423982 31.88505432 36.82963871 30 35 C28.9476416 33.9805127 28.9476416 33.9805127 27.87402344 32.94042969 C20.08337153 25.35780587 12.42548707 17.80940215 5.76171875 9.19921875 C4.02190929 6.92339948 4.02190929 6.92339948 1.76953125 4.89453125 C0 3 0 3 0 0 Z " fill="#121212" transform="translate(125,708)"/>
<path d="M0 0 C3.43930583 1.48126357 5.66954338 3.42427446 8.30078125 6.0703125 C9.11353516 6.885 9.92628906 7.6996875 10.76367188 8.5390625 C11.60478516 9.39242187 12.44589844 10.24578125 13.3125 11.125 C14.14201172 11.95515625 14.97152344 12.7853125 15.82617188 13.640625 C20.751654 18.60109476 25.46223756 23.68392562 30 29 C30.73089844 29.8353125 31.46179688 30.670625 32.21484375 31.53125 C33.80989583 33.35416667 35.40494792 35.17708333 37 37 C36.505 37.99 36.505 37.99 36 39 C33.58026226 36.44038523 31.16477147 33.87679983 28.75 31.3125 C28.06808594 30.59126953 27.38617187 29.87003906 26.68359375 29.12695312 C23.29430278 25.52377486 20.04266267 21.90582939 17 18 C15.35697047 16.31002677 13.68528688 14.64783606 12 13 C11.26910156 12.25878906 10.53820312 11.51757812 9.78515625 10.75390625 C8.98980469 9.94824219 8.19445312 9.14257812 7.375 8.3125 C6.61960937 7.54550781 5.86421875 6.77851562 5.0859375 5.98828125 C2.96464641 3.85180231 2.96464641 3.85180231 0 2 C0 1.34 0 0.68 0 0 Z " fill="#121212" transform="translate(744,115)"/>
<path d="M0 0 C1 2 2 4 3 6 C24.45 6.33 45.9 6.66 68 7 C68 7.33 68 7.66 68 8 C45.56 8 23.12 8 0 8 C0 5.36 0 2.72 0 0 Z " fill="#151515" transform="translate(28,352)"/>
<path d="M0 0 C-10.41725185 5.52752139 -21.48202179 9.57734212 -32.625 13.375 C-33.76171143 13.76921143 -33.76171143 13.76921143 -34.92138672 14.17138672 C-38.73004715 15.44150886 -41.92735049 16.33804601 -46 16 C-42.90726991 13.93817994 -40.26709889 12.96608785 -36.75 11.79296875 C-35.50089844 11.37080078 -34.25179687 10.94863281 -32.96484375 10.51367188 C-30.9955481 9.85391649 -29.02564378 9.19604042 -27.05517578 8.53979492 C-19.54273128 6.03088602 -12.25876165 3.38602162 -5.171875 -0.1862793 C-3 -1 -3 -1 0 0 Z " fill="#0F0F0F" transform="translate(623,829)"/>
<path d="M0 0 C0.66 0.33 1.32 0.66 2 1 C-2.39183333 4.97699897 -7.19466477 7.10448504 -12.5625 9.4375 C-13.45348389 9.83001953 -14.34446777 10.22253906 -15.26245117 10.62695312 C-17.03333833 11.40465876 -18.80584568 12.17868721 -20.58007812 12.94873047 C-22.63642276 13.84205371 -24.68636892 14.74795645 -26.734375 15.66015625 C-31.86603556 17.89386129 -36.39560865 19.61788241 -42 20 C-41 18 -41 18 -39.16845703 17.19726562 C-37.97518799 16.80571289 -37.97518799 16.80571289 -36.7578125 16.40625 C-35.86481445 16.10259521 -34.97181641 15.79894043 -34.05175781 15.48608398 C-33.08592773 15.16067627 -32.12009766 14.83526855 -31.125 14.5 C-22.22386679 11.41383534 -14.01654876 7.69630018 -5.81689453 3.0625 C-4.70870361 2.44181641 -4.70870361 2.44181641 -3.578125 1.80859375 C-2.93262695 1.43532959 -2.28712891 1.06206543 -1.62207031 0.67749023 C-1.08678711 0.45391846 -0.55150391 0.23034668 0 0 Z " fill="#101010" transform="translate(565,616)"/>
<path d="M0 0 C4.75891238 2.18116817 8.15123508 5.50954706 12 9 C13.05047285 9.93394075 14.10127418 10.86751211 15.15234375 11.80078125 C16.2478955 12.7832973 17.3429486 13.76636966 18.4375 14.75 C19.23607422 15.45757446 19.23607422 15.45757446 20.05078125 16.17944336 C22.53641254 18.43365658 23.91989533 19.759686 25 23 C25.66 23 26.32 23 27 23 C28.69140625 24.64453125 28.69140625 24.64453125 30.5625 26.8125 C31.18253906 27.52019531 31.80257812 28.22789062 32.44140625 28.95703125 C34 31 34 31 35 34 C31.7091012 32.90303373 31.03203283 32.15198144 28.875 29.5625 C28.26269531 28.84320313 27.65039062 28.12390625 27.01953125 27.3828125 C26.35308594 26.59648437 25.68664062 25.81015625 25 25 C19.66799894 18.85431834 14.24249189 13.21632884 8 8 C6.49614487 6.71282382 4.9960567 5.4212319 3.5 4.125 C2.8296875 3.55007813 2.159375 2.97515625 1.46875 2.3828125 C0.9840625 1.92648437 0.499375 1.47015625 0 1 C0 0.67 0 0.34 0 0 Z " fill="#141414" transform="translate(590,262)"/>
<path d="M0 0 C-6.70103008 2.70806191 -13.47756305 4.5046083 -20.5 6.1875 C-21.58925781 6.46013672 -22.67851563 6.73277344 -23.80078125 7.01367188 C-29.68979467 8.43429845 -34.94257972 9.33080572 -41 9 C-41 8.67 -41 8.34 -41 8 C-40.26998779 7.83395264 -39.53997559 7.66790527 -38.7878418 7.49682617 C-35.42050839 6.72945425 -32.05400514 5.95849712 -28.6875 5.1875 C-27.53958984 4.92646484 -26.39167969 4.66542969 -25.20898438 4.39648438 C-18.84260514 2.93564381 -12.56133125 1.36404404 -6.31567383 -0.5534668 C-3.83200993 -1.03239366 -2.37130529 -0.80820536 0 0 Z " fill="#111111" transform="translate(576,846)"/>
<path d="M0 0 C8.02711826 0.16723163 15.02811179 1.68315465 22.56640625 4.2722168 C25.9529191 5.42560046 28.36912691 6 32 6 C32 6.66 32 7.32 32 8 C33.32 8.66 34.64 9.32 36 10 C28.72885372 8.70995792 21.69405713 6.86986065 14.59814453 4.8527832 C9.75178288 3.47545762 4.89387284 2.19849947 0 1 C0 0.67 0 0.34 0 0 Z " fill="#0F0F0F" transform="translate(497,220)"/>
<path d="M0 0 C0.66 0.33 1.32 0.66 2 1 C-5.41172875 5.89868947 -12.89287749 10.62031 -20.625 15 C-21.63626953 15.57802368 -21.63626953 15.57802368 -22.66796875 16.16772461 C-25.75718247 17.89682618 -28.54654654 19.24535297 -32 20 C-29.67670204 17.42023408 -27.32295066 15.96734716 -24.25 14.375 C-19.41199227 11.80076594 -14.69303185 9.07651094 -10 6.25 C-9.35321289 5.86118652 -8.70642578 5.47237305 -8.04003906 5.07177734 C-5.32207109 3.43053732 -2.64227426 1.76151617 0 0 Z " fill="#0E0E0E" transform="translate(681,796)"/>
<path d="M0 0 C0.66 0.33 1.32 0.66 2 1 C1.49210937 1.31453125 0.98421875 1.6290625 0.4609375 1.953125 C-2.85981596 4.01771329 -6.15710385 6.09024004 -9.375 8.3125 C-12 10 -12 10 -14 10 C-14.33 10.66 -14.66 11.32 -15 12 C-16.60740022 13.1197938 -18.26065216 14.17465503 -19.9375 15.1875 C-21.28134766 16.01314453 -21.28134766 16.01314453 -22.65234375 16.85546875 C-23.42707031 17.23316406 -24.20179688 17.61085938 -25 18 C-25.66 17.67 -26.32 17.34 -27 17 C-18.48093842 10.76605141 -9.46202546 4.73101273 0 0 Z " fill="#111111" transform="translate(239,55)"/>
<path d="M0 0 C2.475 0.495 2.475 0.495 5 1 C5 1.66 5 2.32 5 3 C5.53625 3.0825 6.0725 3.165 6.625 3.25 C9.82904327 4.26180314 12.23377725 6.1166143 15 8 C15.99 8.33 16.98 8.66 18 9 C19.66666667 10.66666667 21.33333333 12.33333333 23 14 C23.7425 14.37125 24.485 14.7425 25.25 15.125 C25.8275 15.41375 26.405 15.7025 27 16 C27.33 16.99 27.66 17.98 28 19 C23.99768818 17.18534981 20.44181929 14.7013863 16.8125 12.25 C15.47402987 11.350154 14.13548836 10.45041416 12.796875 9.55078125 C12.14912109 9.11459473 11.50136719 8.6784082 10.83398438 8.22900391 C7.72202024 6.14359024 4.58213864 4.100359 1.44140625 2.05859375 C0.96574219 1.70925781 0.49007812 1.35992187 0 1 C0 0.67 0 0.34 0 0 Z " fill="#111111" transform="translate(562,243)"/>
<path d="M0 0 C4.49777719 1.51619985 8.03741626 4.0147378 11.8125 6.8125 C16.76434421 10.42151523 21.74157828 13.84494697 27 17 C26.34 17.33 25.68 17.66 25 18 C22.3125 16.59375 22.3125 16.59375 19 14.5 C18.4227417 14.13559814 17.8454834 13.77119629 17.25073242 13.39575195 C2.80274108 4.20411162 2.80274108 4.20411162 0 0 Z " fill="#141414" transform="translate(328,600)"/>
<path d="M0 0 C0 0.66 0 1.32 0 2 C-1.63604196 3.37073786 -3.30678061 4.70055256 -5 6 C-5.4434375 6.45117188 -5.886875 6.90234375 -6.34375 7.3671875 C-8.49329128 9.48631075 -10.82204171 11.31356551 -13.1875 13.1875 C-14.08855469 13.90292969 -14.98960937 14.61835937 -15.91796875 15.35546875 C-16.94857422 16.16951172 -16.94857422 16.16951172 -18 17 C-18.66 16.67 -19.32 16.34 -20 16 C-16.67274362 12.99319659 -13.33713224 9.99583462 -10 7 C-9.21625 6.2884375 -8.4325 5.576875 -7.625 4.84375 C-6.92375 4.2146875 -6.2225 3.585625 -5.5 2.9375 C-4.55640625 2.08478516 -4.55640625 2.08478516 -3.59375 1.21484375 C-2 0 -2 0 0 0 Z " fill="#121212" transform="translate(607,586)"/>
<path d="M0 0 C4.74928696 1.61991183 8.62318692 4.2169854 12.75 7 C13.43449219 7.45117188 14.11898437 7.90234375 14.82421875 8.3671875 C19.87327939 11.74655878 19.87327939 11.74655878 21 14 C17.05716616 12.68572205 14.13173434 10.74598397 10.83984375 8.296875 C9.01149003 7.00809913 7.15401308 5.93798004 5.1875 4.875 C2 3 2 3 0 0 Z " fill="#111111" transform="translate(676,62)"/>
<path d="M0 0 C4.70959545 2.23886922 9.0230415 4.83919313 13.375 7.6875 C14.01566406 8.10322266 14.65632812 8.51894531 15.31640625 8.94726562 C16.87941738 9.96205643 18.43996741 10.98063624 20 12 C19.01 12.495 19.01 12.495 18 13 C15.44287203 11.6340255 13.0153013 10.22194296 10.5625 8.6875 C9.88123047 8.27048828 9.19996094 7.85347656 8.49804688 7.42382812 C5.62975395 5.66239848 2.80117409 3.8674494 0 2 C0 1.34 0 0.68 0 0 Z " fill="#101010" transform="translate(220,793)"/>
<path d="M0 0 C4.06498881 1.37184347 6.67396561 3.22068459 9.8125 6.125 C10.99779297 7.21167969 10.99779297 7.21167969 12.20703125 8.3203125 C12.79871094 8.87460937 13.39039063 9.42890625 14 10 C10.04433859 10 8.90085629 8.60390851 5.875 6.125 C4.54082031 5.04605469 4.54082031 5.04605469 3.1796875 3.9453125 C1 2 1 2 0 0 Z " fill="#131313" transform="translate(186,769)"/>
<path d="M0 0 C1.4800841 0.11362262 2.95910074 0.24122908 4.4375 0.375 C5.26121094 0.44460938 6.08492187 0.51421875 6.93359375 0.5859375 C7.95646484 0.79089844 7.95646484 0.79089844 9 1 C9.33 1.66 9.66 2.32 10 3 C3.375 2.25 3.375 2.25 0 0 Z " fill="#131313" transform="translate(554,11)"/>
</svg>
