<?xml version="1.0" encoding="UTF-8"?>
<svg version="1.1" xmlns="http://www.w3.org/2000/svg" width="906" height="862">
<path d="M0 0 C2.00483237 4.84450376 0.25763024 10.33396821 -0.5625 15.3125 C-0.74449951 16.42463867 -0.92649902 17.53677734 -1.11401367 18.68261719 C-5.5054417 44.37238018 -13.87641798 69.04274637 -24 93 C-24.34256836 93.81291504 -24.68513672 94.62583008 -25.03808594 95.46337891 C-30.45273969 108.18756291 -36.7318435 120.33117749 -43.52099609 132.37304688 C-44.8984775 134.81967942 -46.25716352 137.27586144 -47.61328125 139.734375 C-60.54403594 162.89592112 -76.10258202 184.91560875 -93.43359375 205 C-95.76718522 207.72785122 -98.01438282 210.50439767 -100.25 213.3125 C-112.15733686 227.91543719 -125.70306358 242.19789767 -140.1015625 254.37890625 C-142.32900033 256.2809365 -144.47022971 258.2660772 -146.625 260.25 C-165.62916227 277.36825304 -187.1688563 291.78232888 -209 305 C-210.18296347 305.73720433 -211.36523638 306.47551774 -212.546875 307.21484375 C-220.34381905 312.05075242 -228.28101948 316.19332351 -236.63671875 319.98046875 C-240.07768025 321.54332182 -243.44378383 323.22859203 -246.8125 324.94140625 C-272.26921707 337.72471884 -300.77227248 346.93118155 -328.67382812 352.53271484 C-330.89614521 352.97913748 -333.1122209 353.44867516 -335.328125 353.92578125 C-341.41807695 355.21745473 -347.43296314 356.31936193 -353.65625 356.69140625 C-356.16867554 356.95863333 -356.16867554 356.95863333 -359.16503906 357.94995117 C-376.36644564 362.65986012 -395.24183999 361.31137133 -412.93164062 361.26074219 C-416.9328606 361.24938718 -420.93381353 361.25610686 -424.93502426 361.26760483 C-448.30949051 361.32494951 -471.20005895 360.40843932 -494.25 356.25 C-495.35604584 356.05442001 -495.35604584 356.05442001 -496.48443604 355.85488892 C-528.29183025 350.22635531 -559.03463718 342.20220744 -589 330 C-589.83337891 329.66564941 -590.66675781 329.33129883 -591.52539062 328.98681641 C-616.94580122 318.73210219 -641.47361886 305.63791933 -664 290 C-664.99845947 289.30704834 -664.99845947 289.30704834 -666.01708984 288.60009766 C-682.18161684 277.35473752 -697.22578802 265.23759103 -711.79296875 251.98828125 C-713.72868901 250.24441999 -715.6985665 248.55728851 -717.6875 246.875 C-727.10273464 238.67029553 -735.97886388 229.5656875 -744 220 C-744.89566313 218.96617056 -745.79296045 217.93375584 -746.69140625 216.90234375 C-762.24821138 198.999872 -776.39598622 180.09626055 -789 160 C-789.55558594 159.15179687 -790.11117187 158.30359375 -790.68359375 157.4296875 C-805.52449945 134.72345768 -818.12678511 110.25846999 -828 85 C-828.59143799 83.49445557 -828.59143799 83.49445557 -829.19482422 81.95849609 C-850.29651323 27.80479592 -850.29651323 27.80479592 -850 1 C-848.12641196 -0.87358804 -845.42268426 -0.12281958 -842.92962164 -0.12908131 C-842.04928922 -0.12616847 -841.16895679 -0.12325563 -840.26194763 -0.12025452 C-839.33412682 -0.12110894 -838.40630601 -0.12196337 -837.45036942 -0.12284368 C-834.31642179 -0.12450133 -831.18252675 -0.11897248 -828.04858398 -0.11352539 C-825.81201173 -0.11324355 -823.57543939 -0.11340118 -821.33886719 -0.1139679 C-815.24613747 -0.11425601 -809.15342725 -0.10835707 -803.06070209 -0.10139394 C-796.70120005 -0.09516267 -790.34169761 -0.09455678 -783.98219299 -0.09336853 C-773.30135723 -0.09060883 -762.6205292 -0.0843533 -751.93969727 -0.07543945 C-740.93644242 -0.06626605 -729.93318953 -0.05918487 -718.92993164 -0.05493164 C-717.91325373 -0.05453756 -717.91325373 -0.05453756 -716.87603687 -0.05413551 C-713.47592335 -0.05283051 -710.0758098 -0.05156679 -706.67569625 -0.05032361 C-678.45045916 -0.03995013 -650.22523003 -0.02225694 -622 0 C-621.21333717 1.56255742 -620.42794454 3.12575434 -619.64306641 4.68920898 C-619.20556061 5.5596434 -618.76805481 6.43007782 -618.31729126 7.32688904 C-617.07040381 9.8571332 -615.87849798 12.4050064 -614.7109375 14.97265625 C-604.12624592 38.14936426 -589.73914318 58.69584098 -572 77 C-571.46793945 77.5578418 -570.93587891 78.11568359 -570.38769531 78.69042969 C-536.04702109 114.61636296 -485.81501163 140.78901305 -435.41186523 142.17700195 C-433.79418969 142.20310372 -432.17641043 142.22329252 -430.55859375 142.23828125 C-429.68161331 142.2480751 -428.80463287 142.25786896 -427.90107727 142.26795959 C-409.24977605 142.43346194 -391.23420571 142.3914491 -373 138 C-372.04867188 137.78569336 -371.09734375 137.57138672 -370.1171875 137.35058594 C-350.4759931 132.90022296 -332.51539451 125.87937276 -315 116 C-314.22140625 115.59523438 -313.4428125 115.19046875 -312.640625 114.7734375 C-307.4727679 112.07294074 -302.68648218 108.84337974 -297.875 105.5625 C-296.8706189 104.88030396 -296.8706189 104.88030396 -295.84594727 104.18432617 C-291.80736632 101.39244844 -288.07803058 98.42685441 -284.44970703 95.11694336 C-283 94 -283 94 -281 94 C-281 93.34 -281 92.68 -281 92 C-279.52520322 90.73588848 -277.9928273 89.53859807 -276.4375 88.375 C-272.33236549 85.17762059 -268.94482686 81.90310937 -265.62890625 77.91015625 C-264.08827531 76.10351709 -262.47572626 74.50281271 -260.75 72.875 C-255.23930784 67.43827686 -250.66190619 61.15991031 -246 55 C-245.56751953 54.43361816 -245.13503906 53.86723633 -244.68945312 53.28369141 C-233.3320372 38.31692719 -224.49933771 21.44362692 -216.90185547 4.29321289 C-216.54477509 3.48775528 -216.1876947 2.68229767 -215.8197937 1.85243225 C-215.54926178 1.24112961 -215.27872986 0.62982697 -215 0 C-187.41047578 -0.15380517 -159.82092587 -0.30184107 -132.23133373 -0.4429636 C-119.4217028 -0.50862096 -106.61208716 -0.57618329 -93.80249023 -0.64819336 C-82.64076197 -0.71093503 -71.47902159 -0.77014005 -60.31725198 -0.82505554 C-54.40439187 -0.85427124 -48.4915533 -0.88528678 -42.57872581 -0.92053413 C-37.01797596 -0.9536269 -31.45722234 -0.98200529 -25.89642906 -1.00670624 C-23.85134454 -1.01663279 -21.80626768 -1.02830876 -19.76120377 -1.04183006 C-16.97716931 -1.05998022 -14.19317613 -1.07193666 -11.40910339 -1.08229065 C-10.59296088 -1.08909444 -9.77681836 -1.09589823 -8.93594426 -1.10290819 C-5.68828832 -1.10941852 -3.10433225 -1.03477742 0 0 Z " fill="#FEEA00" transform="translate(878,501)"/>
<path d="M0 0 C0.65000977 -0.0049649 1.30001953 -0.00992981 1.96972656 -0.01504517 C4.11239724 -0.02959143 6.25499317 -0.0364664 8.39770508 -0.04199219 C9.51386924 -0.04623325 9.51386924 -0.04623325 10.65258217 -0.05056 C14.61295546 -0.06554377 18.57329259 -0.07477063 22.53369141 -0.07910156 C25.75190892 -0.08343597 28.96985071 -0.09712931 32.18798828 -0.12011719 C64.74765956 -0.34804414 96.68893361 2.17495317 128.27137756 10.64012146 C130.06984238 11.11859384 131.87192663 11.58340699 133.67431641 12.046875 C143.05053633 14.4790744 152.23786051 17.32281093 161.41723633 20.41113281 C162.13418671 20.65135162 162.85113708 20.89157043 163.58981323 21.1390686 C180.3274864 26.75918856 196.61053626 32.9133617 212.2644043 41.13134766 C214.26858581 42.18148898 216.28158176 43.21309451 218.29614258 44.24316406 C247.03367055 59.05256339 275.24342899 77.18563014 299.02905273 99.1965332 C301.33599715 101.25599423 303.72879138 103.15862404 306.15551758 105.07519531 C312.41764969 110.17992845 318.10621558 115.76852028 323.78344727 121.5090332 C325.48633025 123.23029791 327.19720562 124.94329941 328.90942383 126.65527344 C334.55922749 132.32314509 340.05778637 138.04843493 345.22973633 144.16113281 C346.17858183 145.24463348 347.12905706 146.32670951 348.08129883 147.40722656 C355.88229602 156.35047785 363.14763919 165.64128117 370.22973633 175.16113281 C370.77275391 175.88848633 371.31577148 176.61583984 371.87524414 177.36523438 C384.6254282 194.50942125 395.76182562 212.54824664 406.22973633 231.16113281 C406.58487305 231.78874512 406.94000977 232.41635742 407.3059082 233.06298828 C428.15432402 270.13699866 447.82816131 316.03813479 449.22973633 359.16113281 C448.89973633 359.82113281 448.56973633 360.48113281 448.22973633 361.16113281 C377.27973633 361.16113281 306.32973633 361.16113281 233.22973633 361.16113281 C230.75473633 355.71613281 230.75473633 355.71613281 228.22973633 350.16113281 C226.88313943 347.21968372 225.53133627 344.28185775 224.16723633 341.34863281 C223.84174805 340.63771484 223.51625977 339.92679687 223.1809082 339.19433594 C221.18066949 334.90471509 218.91146034 331.07655441 216.22973633 327.16113281 C215.26054902 325.44565138 214.29142592 323.73013293 213.32397461 322.01367188 C206.56277573 310.56700139 198.09175223 300.03502337 189.22973633 290.16113281 C188.69670898 289.5663916 188.16368164 288.97165039 187.61450195 288.35888672 C181.49449676 281.56895064 175.38667933 274.87911373 168.22973633 269.16113281 C167.47007568 268.54890869 167.47007568 268.54890869 166.69506836 267.92431641 C154.47398066 258.09514487 142.03724374 249.60823751 128.22973633 242.16113281 C127.21911133 241.61328125 126.20848633 241.06542969 125.16723633 240.50097656 C112.47565762 233.89077932 99.18444558 229.22426469 85.41723633 225.41113281 C84.42385254 225.12955322 83.43046875 224.84797363 82.40698242 224.55786133 C65.65908048 220.09468256 48.8372274 218.67075074 31.56079102 218.82495117 C28.70276207 218.84885845 25.84565482 218.84543587 22.98754883 218.83886719 C13.22231997 218.85315648 3.83614993 219.22572301 -5.77026367 221.16113281 C-6.69645508 221.33265869 -7.62264648 221.50418457 -8.5769043 221.6809082 C-41.85986097 227.99959851 -74.47105842 240.79015191 -100.39526367 263.11816406 C-102.64369786 265.05226123 -104.96294114 266.81726284 -107.33276367 268.59863281 C-120.42369949 279.07556388 -131.91222083 291.63938803 -141.77026367 305.16113281 C-142.61474151 306.28786552 -143.45979788 307.41416484 -144.30541992 308.54003906 C-153.74701197 321.26637443 -161.44519179 334.83798532 -167.98120117 349.25878906 C-169.81982999 353.269248 -171.79722861 357.21506268 -173.77026367 361.16113281 C-248.68026367 361.16113281 -323.59026367 361.16113281 -400.77026367 361.16113281 C-401.89665402 354.40279075 -401.89665402 354.40279075 -401.16870117 350.43066406 C-401.01095215 349.55514893 -400.85320312 348.67963379 -400.69067383 347.77758789 C-400.51068848 346.85228271 -400.33070313 345.92697754 -400.14526367 344.97363281 C-399.86948486 343.51703247 -399.86948486 343.51703247 -399.58813477 342.03100586 C-395.3981729 320.52545684 -388.83125494 299.63544571 -380.64453125 279.33227539 C-380.02759322 277.80018103 -379.41594857 276.26594999 -378.80810547 274.73022461 C-363.75273986 236.74172842 -343.15675656 200.2390353 -317.77026367 168.16113281 C-317.09866211 167.31035156 -316.42706055 166.45957031 -315.73510742 165.58300781 C-314.40545739 163.91261894 -313.06971054 162.24706119 -311.72729492 160.58691406 C-310.42159135 158.96846712 -309.1272748 157.3407677 -307.84448242 155.70410156 C-303.48967313 150.16241038 -298.8991505 144.91289375 -294.12182617 139.73144531 C-292.22530628 137.65850496 -290.39439795 135.55722265 -288.58276367 133.41113281 C-280.96004402 124.64500522 -272.51219272 116.23783526 -263.63354492 108.74707031 C-261.41555183 106.85921875 -259.28784212 104.88410489 -257.14526367 102.91113281 C-250.94466073 97.32491888 -244.39196824 92.23307674 -237.77026367 87.16113281 C-237.12750488 86.66677734 -236.48474609 86.17242187 -235.82250977 85.66308594 C-208.18720534 64.46078375 -177.95549788 46.55466133 -145.77026367 33.16113281 C-144.92866699 32.80841309 -144.08707031 32.45569336 -143.2199707 32.09228516 C-127.06634822 25.38159024 -110.55219124 20.06580756 -93.77026367 15.16113281 C-92.8732373 14.89816406 -91.97621094 14.63519531 -91.05200195 14.36425781 C-66.91284683 7.39126215 -41.28575929 2.47392072 -16.15307617 1.37207031 C-12.85488034 1.23205352 -12.85488034 1.23205352 -9.98197937 0.65802002 C-6.60650117 0.13579698 -3.41483385 0.01998763 0 0 Z " fill="#FEEA00" transform="translate(428.770263671875,-0.1611328125)"/>
<path d="M0 0 C-2.95503567 1.67023755 -5.31316601 2.30036166 -8.6875 2.5625 C-11.64181288 2.59506307 -11.64181288 2.59506307 -14 4 C-16.35313555 4.07271741 -18.70833668 4.08370868 -21.0625 4.0625 C-22.35285156 4.05347656 -23.64320313 4.04445313 -24.97265625 4.03515625 C-25.97167969 4.02355469 -26.97070312 4.01195312 -28 4 C-28 3.67 -28 3.34 -28 3 C-24.83486722 2.48996146 -21.66769716 1.99384043 -18.5 1.5 C-17.613125 1.35691406 -16.72625 1.21382813 -15.8125 1.06640625 C-10.46923901 0.24134389 -5.40603486 -0.15157107 0 0 Z " fill="#FEEC1B" transform="translate(408,2)"/>
</svg>
